<svg width="56" height="44" viewBox="0 0 56 44" fill="none" xmlns="http://www.w3.org/2000/svg">
<rect width="56" height="44" rx="8" fill="url(#paint0_linear_4754_5434)" fill-opacity="0.2"/>
<path d="M27.05 24.95L25.2 26.8C24.81 27.19 24.19 27.19 23.79 26.81C23.68 26.7 23.57 26.6 23.46 26.49C22.4488 25.472 21.5161 24.3789 20.67 23.22C19.85 22.08 19.19 20.94 18.71 19.81C18.24 18.67 18 17.58 18 16.54C18 15.86 18.12 15.21 18.36 14.61C18.6 14 18.98 13.44 19.51 12.94C20.15 12.31 20.85 12 21.59 12C21.87 12 22.15 12.06 22.4 12.18C22.66 12.3 22.89 12.48 23.07 12.74L25.39 16.01C25.57 16.26 25.7 16.49 25.79 16.71C25.88 16.92 25.93 17.13 25.93 17.32C25.93 17.56 25.86 17.8 25.72 18.03C25.59 18.26 25.4 18.5 25.16 18.74L24.4 19.53C24.29 19.64 24.24 19.77 24.24 19.93C24.24 20.01 24.25 20.08 24.27 20.16C24.3 20.24 24.33 20.3 24.35 20.36C24.53 20.69 24.84 21.12 25.28 21.64C25.73 22.16 26.21 22.69 26.73 23.22C26.83 23.32 26.94 23.42 27.04 23.52C27.44 23.91 27.45 24.55 27.05 24.95ZM37.97 28.33C37.9687 28.7074 37.8833 29.0798 37.72 29.42C37.55 29.78 37.33 30.12 37.04 30.44C36.55 30.98 36.01 31.37 35.4 31.62C35.39 31.62 35.38 31.63 35.37 31.63C34.78 31.87 34.14 32 33.45 32C32.43 32 31.34 31.76 30.19 31.27C29.04 30.78 27.89 30.12 26.75 29.29C26.36 29 25.97 28.71 25.6 28.4L28.87 25.13C29.15 25.34 29.4 25.5 29.61 25.61C29.66 25.63 29.72 25.66 29.79 25.69C29.87 25.72 29.95 25.73 30.04 25.73C30.21 25.73 30.34 25.67 30.45 25.56L31.21 24.81C31.46 24.56 31.7 24.37 31.93 24.25C32.16 24.11 32.39 24.04 32.64 24.04C32.83 24.04 33.03 24.08 33.25 24.17C33.47 24.26 33.7 24.39 33.95 24.56L37.26 26.91C37.52 27.09 37.7 27.3 37.81 27.55C37.91 27.8 37.97 28.05 37.97 28.33Z" fill="url(#paint1_linear_4754_5434)"/>
<defs>
<linearGradient id="paint0_linear_4754_5434" x1="-4.30769" y1="7.61538" x2="66.9166" y2="38.7327" gradientUnits="userSpaceOnUse">
<stop stop-color="#4CC82A" stop-opacity="0.8"/>
<stop offset="0.56" stop-color="#118206"/>
</linearGradient>
<linearGradient id="paint1_linear_4754_5434" x1="16.4638" y1="15.4615" x2="43.5311" y2="24.739" gradientUnits="userSpaceOnUse">
<stop stop-color="#31E000" stop-opacity="0.8"/>
<stop offset="0.56" stop-color="#118206"/>
</linearGradient>
</defs>
</svg>
