<svg width="13" height="12" viewBox="0 0 13 12" fill="none" xmlns="http://www.w3.org/2000/svg">
<path d="M7.30045 5.98186L12.0326 10.7165C12.2698 10.9538 12.2698 11.3385 12.0326 11.5757C11.7955 11.813 11.411 11.813 11.1738 11.5757L6.44165 6.84107L1.70948 11.5757C1.47233 11.813 1.08784 11.813 0.850715 11.5757C0.613586 11.3384 0.613564 10.9537 0.850715 10.7165L5.58288 5.98186L0.850715 1.24723C0.613564 1.00995 0.613564 0.625269 0.850715 0.388017C1.08787 0.150742 1.47235 0.150764 1.70948 0.388017L6.44165 5.12265L11.1738 0.388017C11.4109 0.150742 11.7954 0.150764 12.0326 0.388017C12.2697 0.625292 12.2697 1.00997 12.0326 1.24723L7.30045 5.98186Z" fill="white"/>
</svg>
