<svg width="25" height="24" viewBox="0 0 25 24" fill="none" xmlns="http://www.w3.org/2000/svg">
<path d="M0.556641 12C0.556641 18.6274 5.92922 24 12.5566 24C19.1841 24 24.5566 18.6274 24.5566 12C24.5566 5.37258 19.1841 0 12.5566 0C5.92922 0 0.556641 5.37258 0.556641 12Z" fill="#1877F2"/>
<path d="M18.5566 12C18.5566 8.7 15.8566 6 12.5566 6C9.25664 6 6.55664 8.7 6.55664 12C6.55664 15 8.73164 17.475 11.5816 17.925V13.725H10.0816V12H11.5816V10.65C11.5816 9.15 12.4816 8.325 13.8316 8.325C14.5066 8.325 15.1816 8.475 15.1816 8.475V9.975H14.4316C13.6816 9.975 13.4566 10.425 13.4566 10.875V12H15.1066L14.8066 13.725H13.3816V18C16.3816 17.55 18.5566 15 18.5566 12Z" fill="white"/>
</svg>
