<svg width="22" height="22" viewBox="0 0 22 22" fill="none" xmlns="http://www.w3.org/2000/svg">
<path d="M16.4997 11.9167H5.49967C4.94967 11.9167 4.58301 11.55 4.58301 11C4.58301 10.45 4.94967 10.0833 5.49967 10.0833H16.4997C17.0497 10.0833 17.4163 10.45 17.4163 11C17.4163 11.55 17.0497 11.9167 16.4997 11.9167ZM13.7497 17.4167H8.24967C7.69967 17.4167 7.33301 17.05 7.33301 16.5C7.33301 15.95 7.69967 15.5833 8.24967 15.5833H13.7497C14.2997 15.5833 14.6663 15.95 14.6663 16.5C14.6663 17.05 14.2997 17.4167 13.7497 17.4167ZM19.2497 6.41666H2.74967C2.19967 6.41666 1.83301 6.05 1.83301 5.5C1.83301 4.94999 2.19967 4.58333 2.74967 4.58333H19.2497C19.7997 4.58333 20.1663 4.94999 20.1663 5.5C20.1663 6.05 19.7997 6.41666 19.2497 6.41666Z" fill="white"/>
</svg>
