<svg width="25" height="24" viewBox="0 0 25 24" fill="none" xmlns="http://www.w3.org/2000/svg">
<path d="M24.127 12C24.127 5.37258 18.7544 0 12.127 0C5.49954 0 0.126953 5.37258 0.126953 12C0.126953 18.6274 5.49954 24 12.127 24C18.7544 24 24.127 18.6274 24.127 12Z" fill="white"/>
<path fill-rule="evenodd" clip-rule="evenodd" d="M21.1271 12.2088C21.1271 11.5571 21.0686 10.9304 20.96 10.3287H12.3032V13.8842H17.2499C17.0369 15.0331 16.3893 16.0066 15.4158 16.6584V18.9646H18.3863C20.1244 17.3644 21.1271 15.0081 21.1271 12.2088Z" fill="#4285F4"/>
<path fill-rule="evenodd" clip-rule="evenodd" d="M12.3032 21.1915C14.785 21.1915 16.8656 20.3685 18.3864 18.9647L15.4158 16.6584C14.5928 17.2099 13.5399 17.5358 12.3032 17.5358C9.90926 17.5358 7.88295 15.9189 7.16016 13.7464H4.08936V16.1278C5.60178 19.1318 8.71019 21.1915 12.3032 21.1915Z" fill="#34A853"/>
<path fill-rule="evenodd" clip-rule="evenodd" d="M7.16027 13.7464C6.97644 13.1949 6.87199 12.6058 6.87199 12C6.87199 11.3942 6.97644 10.8051 7.16027 10.2536V7.87213H4.08946C3.46694 9.11299 3.11182 10.5168 3.11182 12C3.11182 13.4831 3.46694 14.8869 4.08946 16.1278L7.16027 13.7464Z" fill="#FBBC05"/>
<path fill-rule="evenodd" clip-rule="evenodd" d="M12.3032 6.46419C13.6527 6.46419 14.8643 6.92795 15.8169 7.83875L18.4532 5.20245C16.8614 3.71927 14.7808 2.80847 12.3032 2.80847C8.71019 2.80847 5.60178 4.86821 4.08936 7.87217L7.16016 10.2536C7.88295 8.08107 9.90926 6.46419 12.3032 6.46419Z" fill="#EA4335"/>
</svg>
