<svg width="29" height="22" viewBox="0 0 29 22" fill="none" xmlns="http://www.w3.org/2000/svg">
<path d="M22.3413 16.8608V13.3336H18.408V10.9821H22.3413V7.45489H24.9635V10.9821H28.8968V13.3336H24.9635V16.8608H22.3413ZM13.1637 21.5638L9.00094 18.2129C7.42763 16.9392 6.07808 15.8026 4.95229 14.8033C3.8265 13.8039 2.89781 12.8633 2.16622 11.9815C1.43463 11.0997 0.899266 10.2473 0.56013 9.42425C0.220995 8.60124 0.0518637 7.73903 0.0527377 6.83763C0.0527377 4.99563 0.741061 3.46247 2.11771 2.23813C3.49435 1.0138 5.2097 0.401235 7.26374 0.400452C8.40002 0.400452 9.48168 0.611301 10.5087 1.033C11.5357 1.4547 12.4207 2.05707 13.1637 2.84011C13.9066 2.05628 14.7916 1.45391 15.8186 1.033C16.8456 0.612085 17.9273 0.401235 19.0636 0.400452C20.921 0.400452 22.4781 0.905236 23.735 1.9148C24.9919 2.92437 25.7729 4.10482 26.0779 5.45613C25.6846 5.31896 25.2913 5.21628 24.8979 5.14809C24.5046 5.0799 24.1222 5.04541 23.7507 5.04462C21.5437 5.04462 19.6645 5.73557 18.113 7.11745C16.5616 8.49934 15.7858 10.1795 15.7858 12.1578C15.7858 13.1768 16.0153 14.1421 16.4742 15.0537C16.9331 15.9653 17.5777 16.744 18.408 17.3899C17.9929 17.723 17.4522 18.1494 16.7862 18.6691C16.1202 19.1888 15.5464 19.6442 15.0647 20.0353L13.1637 21.5638Z" fill="white"/>
</svg>
