<svg width="18" height="13" viewBox="0 0 18 13" fill="none" xmlns="http://www.w3.org/2000/svg">
<path d="M10.9271 6.51821L11.909 5.55266C11.9804 5.81549 12.0223 6.09028 12.0223 6.37503C12.0223 8.13267 10.5682 9.56253 8.78077 9.56253C8.49119 9.56253 8.21175 9.52136 7.94446 9.4511L8.92637 8.48556C9.44537 8.45089 9.93403 8.23249 10.3019 7.87078C10.6697 7.50907 10.8918 7.02856 10.9271 6.51821ZM17.3568 6.11698C17.2903 5.99944 16.3478 4.37554 14.5056 2.99934L13.7194 3.77244C15.0627 4.7437 15.9139 5.87645 16.249 6.37583C15.6086 7.3346 13.0967 10.625 8.78077 10.625C8.13354 10.625 7.5317 10.5436 6.96538 10.4137L6.07761 11.2867C6.8938 11.5328 7.79089 11.6875 8.78077 11.6875C14.4363 11.6875 17.2402 6.83935 17.3568 6.63309C17.4014 6.55416 17.4248 6.46534 17.4248 6.37503C17.4248 6.28472 17.4014 6.1959 17.3568 6.11698ZM15.1055 0.906877L3.21993 12.5944C3.11445 12.6981 2.97614 12.75 2.83797 12.75C2.6998 12.75 2.5615 12.6981 2.45601 12.5944C2.40582 12.5451 2.36599 12.4865 2.33882 12.4221C2.31165 12.3576 2.29767 12.2885 2.29767 12.2188C2.29767 12.149 2.31165 12.0799 2.33882 12.0155C2.36599 11.951 2.40582 11.8925 2.45601 11.8432L3.96819 10.3562C1.52354 8.90498 0.281356 6.76869 0.204775 6.63309C0.160142 6.55414 0.136719 6.4653 0.136719 6.37497C0.136719 6.28464 0.160142 6.1958 0.204775 6.11685C0.321335 5.91072 3.12525 1.06253 8.78077 1.06253C10.2431 1.06253 11.5097 1.39058 12.5925 1.87561L14.3416 0.155689C14.5527 -0.0518965 14.8946 -0.0518965 15.1055 0.155689C15.3165 0.363275 15.3166 0.699424 15.1055 0.906877ZM4.77384 9.56399L6.14163 8.219C5.76385 7.69785 5.53924 7.06234 5.53924 6.37503C5.53924 4.61739 6.99334 3.18753 8.78077 3.18753C9.47972 3.18753 10.126 3.4084 10.656 3.77974L11.762 2.69214C10.8882 2.34803 9.89518 2.12503 8.78077 2.12503C4.46481 2.12503 1.9529 5.41546 1.3127 6.37424C1.71924 6.98013 2.88781 8.51385 4.77384 9.56399ZM6.92594 7.44763L9.87154 4.55112C9.55023 4.36452 9.18029 4.25003 8.78077 4.25003C7.58924 4.25003 6.61975 5.20336 6.61975 6.37503C6.61975 6.76789 6.73618 7.13167 6.92594 7.44763Z" fill="url(#paint0_linear_4796_3725)"/>
<defs>
<linearGradient id="paint0_linear_4796_3725" x1="0.104503" y1="1.275" x2="16.5613" y2="0.148898" gradientUnits="userSpaceOnUse">
<stop offset="0.145353" stop-color="#00D4FF"/>
<stop offset="1" stop-color="#00A3E0"/>
</linearGradient>
</defs>
</svg>
