<svg width="17" height="17" viewBox="0 0 17 17" fill="none" xmlns="http://www.w3.org/2000/svg">
<path d="M1.05176 15.8813H15.7432C15.752 15.8813 15.7606 15.8838 15.7686 15.8871L15.7891 15.9008C15.8014 15.9132 15.8086 15.9302 15.8086 15.9477C15.8086 15.9565 15.807 15.9651 15.8037 15.9731L15.7891 15.9946C15.7768 16.0066 15.7604 16.0131 15.7432 16.0131H1.05176C1.04326 16.0131 1.03507 16.0114 1.02734 16.0082L1.00586 15.9946C0.993517 15.9822 0.986347 15.9651 0.986328 15.9477L0.991211 15.9223L1.00586 15.9008C1.01809 15.8887 1.03455 15.8814 1.05176 15.8813ZM12.1279 1.7309C13.1973 0.658368 14.6559 0.548068 15.5068 1.21136L15.6689 1.35394L15.6719 1.35687C16.1172 1.79508 16.2855 2.41432 16.2061 3.0766C16.1359 3.66032 15.8745 4.24585 15.4805 4.69769L15.3037 4.88324L15.2949 4.89105L7.68164 12.5121L7.67871 12.5151L7.66504 12.5229L7.65332 12.5258L3.44922 13.6557C3.4383 13.6581 3.42682 13.6586 3.41602 13.6557L3.38574 13.6381L3.36719 13.6078V13.5717L4.49707 9.36957V9.36859L4.51172 9.3432L4.51465 9.34027L12.1279 1.7309Z" stroke="white"/>
</svg>
