<svg width="512" height="360" viewBox="0 0 512 360" fill="none" xmlns="http://www.w3.org/2000/svg">
<path d="M505.409 169.423C485.796 137.947 385.989 0 256 0C126.04 0 26.206 137.945 6.591 169.423L0 180L6.591 190.577C26.204 222.053 126.011 360 256 360C385.96 360 485.794 222.056 505.409 190.577L512 180L505.409 169.423ZM256 320C155.164 320 72.138 214.246 47.892 179.984C72.093 145.694 154.906 40 256 40C356.829 40 439.851 145.739 464.108 180.016C439.907 214.307 357.094 320 256 320ZM256 80C200.859 80 156 124.86 156 180C156 235.14 200.859 280 256 280C311.141 280 356 235.14 356 180C356 124.86 311.141 80 256 80ZM256 240C222.916 240 196 213.084 196 180C196 146.916 222.916 120 256 120C289.084 120 316 146.916 316 180C316 213.084 289.084 240 256 240Z" fill="url(#paint0_linear_5474_143)"/>
<defs>
<linearGradient id="paint0_linear_5474_143" x1="511" y1="169" x2="-4.5" y2="166" gradientUnits="userSpaceOnUse">
<stop stop-color="#00D4FF"/>
<stop offset="1" stop-color="#00A3E0"/>
</linearGradient>
</defs>
</svg>
