<svg width="16" height="15" viewBox="0 0 16 15" fill="none" xmlns="http://www.w3.org/2000/svg">
<path d="M8.02539 0.536316C8.14335 0.536383 8.25963 0.56395 8.36621 0.616394L8.46875 0.676941C8.56812 0.74605 8.6523 0.837283 8.71387 0.944519L8.76758 1.05682L10.2334 4.73749L10.291 4.88104L10.4443 4.89374L14.2451 5.2121V5.21112C14.4018 5.22496 14.5518 5.28713 14.6768 5.38983C14.7706 5.46707 14.8478 5.56509 14.9014 5.67694L14.9473 5.79315C14.9849 5.91336 14.9965 6.04071 14.9814 6.16522L14.957 6.28925C14.9133 6.4518 14.8243 6.59578 14.7031 6.70428L14.0547 7.28534L14.0576 7.28436L11.8086 9.29803L11.6982 9.39667L11.7314 9.54022L12.6143 13.4201V13.4211C12.6427 13.5441 12.6447 13.6715 12.6201 13.7941L12.5869 13.9152C12.5447 14.0338 12.4777 14.14 12.3926 14.2267L12.3018 14.3068C12.173 14.4039 12.0203 14.4584 11.8633 14.465L11.7451 14.4611C11.6673 14.4524 11.591 14.4315 11.5186 14.3996L11.4141 14.3439L8.16113 12.2678L8.02637 12.1818L7.89258 12.2678L4.63672 14.3439C4.50138 14.4289 4.34597 14.4708 4.18945 14.4641L4.07324 14.4494C3.99618 14.4342 3.92149 14.4073 3.85156 14.3693L3.75098 14.3049C3.65454 14.232 3.57423 14.1376 3.5166 14.0285L3.4668 13.9142C3.42464 13.7957 3.40839 13.6692 3.41895 13.5441L3.43848 13.4201L4.3252 9.54022L4.3584 9.39667L4.24805 9.29803L1.34961 6.70428C1.22868 6.59589 1.13948 6.45154 1.0957 6.28925C1.06285 6.16741 1.05715 6.03996 1.07715 5.9162L1.10547 5.79413C1.14289 5.67408 1.20483 5.56516 1.28613 5.47479L1.37402 5.39081C1.49798 5.28831 1.6471 5.22589 1.80273 5.21112L1.80371 5.2121L5.60449 4.89374L5.75879 4.88104L5.81641 4.73749L7.28223 1.05682C7.32848 0.939932 7.39917 0.836334 7.4873 0.753113L7.58105 0.676941C7.71327 0.585036 7.86808 0.536316 8.02539 0.536316Z" stroke="white" stroke-width="0.5"/>
</svg>
