<svg width="30" height="30" viewBox="0 0 30 30" fill="none" xmlns="http://www.w3.org/2000/svg">
<g clip-path="url(#clip0_4681_3370)">
<path d="M27.5974 12.1063C27.2271 11.8576 26.8927 11.5592 26.6035 11.2195C26.6251 10.7467 26.7202 10.2802 26.8855 9.83667C27.1957 8.78452 27.5829 7.47564 26.8374 6.45174C26.0859 5.41943 24.7145 5.38516 23.6124 5.3569C23.1487 5.37547 22.6848 5.32564 22.2356 5.209C21.9888 4.82165 21.8004 4.40007 21.6764 3.95784C21.3085 2.91049 20.8503 1.60703 19.6238 1.20841C18.4334 0.821219 17.365 1.55652 16.4229 2.20285C16.0442 2.50519 15.619 2.74417 15.1639 2.91049C14.7085 2.74434 14.2831 2.50535 13.9043 2.20285C12.9634 1.55592 11.8944 0.823022 10.7046 1.20901C9.47807 1.60763 9.01993 2.91049 8.65198 3.95784C8.5281 4.39787 8.34161 4.81782 8.09825 5.20479C7.64763 5.32502 7.1814 5.37631 6.71542 5.3569C5.61336 5.38516 4.24195 5.42003 3.49102 6.45234C2.74549 7.47684 3.13208 8.78512 3.44292 9.83727C3.60621 10.2785 3.70208 10.7419 3.7273 11.2117C3.43906 11.5562 3.10297 11.8577 2.72926 12.1069C1.84064 12.7845 0.734375 13.6286 0.734375 14.9351C0.734375 16.2416 1.84064 17.0857 2.73046 17.7639C3.10074 18.0126 3.43514 18.311 3.72429 18.6507C3.70271 19.1235 3.60758 19.59 3.44232 20.0335C3.13208 21.0857 2.74489 22.3946 3.49042 23.4185C4.24195 24.4502 5.61336 24.485 6.71542 24.5133C7.17913 24.4947 7.64305 24.5446 8.09223 24.6612C8.33901 25.0486 8.52741 25.4701 8.65138 25.9124C9.01993 26.9597 9.47747 28.2632 10.7046 28.6618C10.9219 28.7333 11.1492 28.7698 11.378 28.77C12.3014 28.77 13.1444 28.1898 13.9055 27.6674C14.284 27.3651 14.709 27.1261 15.1639 26.9597C15.6191 27.1259 16.0443 27.3649 16.4229 27.6674C17.365 28.3143 18.4334 29.0466 19.6238 28.6618C20.8503 28.2632 21.3085 26.9603 21.6764 25.913C21.8001 25.473 21.9864 25.053 22.2296 24.666C22.6802 24.5458 23.1464 24.4945 23.6124 24.5139C24.7145 24.4856 26.0865 24.4508 26.8374 23.4185C27.5829 22.394 27.1963 21.0857 26.8855 20.0335C26.7222 19.5923 26.6263 19.1289 26.6011 18.6591C26.8892 18.3146 27.2251 18.0132 27.5986 17.7639C28.4872 17.0857 29.5934 16.2416 29.5934 14.9351C29.5934 13.6286 28.4872 12.7845 27.5974 12.1063ZM20.5233 12.7797L14.511 18.792C14.2855 19.0174 13.9797 19.1441 13.6608 19.1441C13.342 19.1441 13.0362 19.0174 12.8107 18.792L9.80454 15.7858C9.69282 15.6742 9.60418 15.5416 9.54369 15.3958C9.48319 15.2499 9.45203 15.0935 9.45197 14.9355C9.45192 14.7776 9.48297 14.6212 9.54336 14.4752C9.60375 14.3293 9.69229 14.1967 9.80394 14.085C9.91558 13.9732 10.0481 13.8846 10.194 13.8241C10.3399 13.7636 10.4963 13.7325 10.6543 13.7324C10.8122 13.7323 10.9686 13.7634 11.1145 13.8238C11.2605 13.8842 11.3931 13.9727 11.5048 14.0844L13.6608 16.241L18.823 11.0788C18.9339 10.964 19.0666 10.8724 19.2133 10.8093C19.36 10.7463 19.5178 10.7131 19.6775 10.7118C19.8371 10.7104 19.9955 10.7408 20.1432 10.8013C20.291 10.8617 20.4253 10.951 20.5382 11.0639C20.6511 11.1768 20.7404 11.3111 20.8008 11.4588C20.8613 11.6066 20.8917 11.765 20.8903 11.9246C20.8889 12.0843 20.8558 12.2421 20.7927 12.3888C20.7297 12.5355 20.6381 12.6682 20.5233 12.7791V12.7797Z" fill="url(#paint0_linear_4681_3370)"/>
</g>
<defs>
<linearGradient id="paint0_linear_4681_3370" x1="0.680597" y1="3.86786" x2="28.2043" y2="2.41911" gradientUnits="userSpaceOnUse">
<stop stop-color="#00A3E0"/>
<stop offset="0.854647" stop-color="#00D4FF"/>
</linearGradient>
<clipPath id="clip0_4681_3370">
<rect width="28.8591" height="28.8591" fill="white" transform="translate(0.734375 0.505585)"/>
</clipPath>
</defs>
</svg>
