<svg width="18" height="17" viewBox="0 0 18 17" fill="none" xmlns="http://www.w3.org/2000/svg">
<path d="M8.10682 9.28107C6.54643 9.28107 5.121 8.491 4.29472 7.16763C3.8503 6.45657 3.61328 5.63358 3.61328 4.79083C3.61328 3.58597 4.08403 2.45683 4.93665 1.60421C5.78598 0.761469 6.91183 0.297302 8.10682 0.297302H8.13315C9.32814 0.303886 10.454 0.777929 11.3 1.63384C12.1461 2.48975 12.6069 3.62219 12.6004 4.81717C12.5938 5.65004 12.36 6.45986 11.9189 7.16434C11.0926 8.491 9.66721 9.28107 8.10682 9.28107ZM8.10682 1.23222C7.15873 1.23222 6.2699 1.60092 5.59834 2.26919C4.92019 2.94075 4.5482 3.83946 4.5482 4.79413C4.5482 5.46239 4.73584 6.1142 5.08808 6.67713C5.74319 7.72727 6.87233 8.35274 8.11011 8.35274C9.3446 8.35274 10.4737 7.72727 11.1321 6.67713C11.4811 6.12079 11.6654 5.47885 11.672 4.81717C11.6786 3.86908 11.3132 2.97367 10.6416 2.29552C9.97007 1.61738 9.08124 1.2388 8.13315 1.23551C8.11999 1.23222 8.1134 1.23222 8.10682 1.23222ZM14.3517 16.5135C13.1534 16.5135 12.0769 15.651 11.5403 14.7984C11.3033 14.4198 11.3033 13.9096 11.5403 13.531C12.0769 12.6784 13.1534 11.8159 14.3517 11.8159C15.55 11.8159 16.6264 12.6784 17.163 13.531C17.4 13.9096 17.4 14.4198 17.163 14.7984C16.6264 15.651 15.5467 16.5135 14.3517 16.5135ZM14.3517 12.7475C13.5155 12.7475 12.7189 13.4092 12.3304 14.0248C12.2843 14.1005 12.2843 14.2223 12.3304 14.298C12.7189 14.9136 13.5155 15.5753 14.3517 15.5753C15.1878 15.5753 15.9845 14.9136 16.373 14.298C16.419 14.2223 16.419 14.1005 16.373 14.0248C15.9845 13.4092 15.1878 12.7475 14.3517 12.7475Z" fill="url(#paint0_linear_4754_4671)"/>
<path d="M14.3521 15.2886C13.7299 15.2886 13.2263 14.7816 13.2263 14.1627C13.2263 13.5405 13.7332 13.0369 14.3521 13.0369C14.9743 13.0369 15.478 13.5438 15.478 14.1627C15.478 14.7849 14.971 15.2886 14.3521 15.2886ZM14.3521 13.9685C14.2468 13.9685 14.1579 14.0541 14.1579 14.1627C14.1579 14.2681 14.2435 14.3569 14.3521 14.3569C14.4575 14.3569 14.5464 14.2714 14.5464 14.1627C14.5464 14.0574 14.4575 13.9685 14.3521 13.9685ZM8.10726 15.9865C5.5494 15.9865 3.10676 15.1997 1.03611 13.7117C0.591699 13.3924 0.387597 12.8163 0.532443 12.2797C0.720086 11.5851 1.00649 10.9168 1.37848 10.298C2.53396 8.37874 4.86797 7.50966 7.05383 8.1878C7.39291 8.29314 7.74844 8.34582 8.11056 8.34582C8.46938 8.34582 8.82491 8.29314 9.16728 8.1878C11.0338 7.60842 13.0584 8.16147 14.3258 9.59347C14.441 9.72515 14.4739 9.91279 14.4081 10.0741C14.3423 10.2387 14.1908 10.3506 14.0163 10.3671C12.0708 10.5383 10.5466 12.204 10.5466 14.1594C10.5466 14.5117 10.596 14.8606 10.6882 15.1964C10.7244 15.3215 10.7046 15.4598 10.6355 15.5684C10.5664 15.6803 10.4544 15.756 10.3228 15.7791C9.59523 15.9206 8.85125 15.9865 8.10726 15.9865ZM5.5527 8.89557C4.18653 8.89557 2.89608 9.5836 2.17843 10.7819C1.84923 11.3283 1.59904 11.9143 1.43444 12.5266C1.39165 12.6879 1.4509 12.8624 1.58258 12.9579C3.49192 14.3306 5.74692 15.0548 8.10726 15.0548C8.63069 15.0548 9.15411 15.0186 9.67424 14.9462C9.63144 14.6894 9.6084 14.4261 9.6084 14.1627C9.6084 12.971 10.0528 11.8287 10.8593 10.9531C11.4387 10.3243 12.1663 9.87 12.9662 9.62639C11.9687 8.91862 10.6618 8.70135 9.43722 9.07992C9.00597 9.2116 8.55826 9.28073 8.10726 9.28073C7.65297 9.28073 7.20526 9.2116 6.77402 9.07992C6.3691 8.95483 5.95761 8.89557 5.5527 8.89557Z" fill="url(#paint1_linear_4754_4671)"/>
<defs>
<linearGradient id="paint0_linear_4754_4671" x1="3.5877" y1="1.91892" x2="16.6924" y2="1.35908" gradientUnits="userSpaceOnUse">
<stop stop-color="#00A3E0"/>
<stop offset="0.854647" stop-color="#00D4FF"/>
</linearGradient>
<linearGradient id="paint1_linear_4754_4671" x1="0.458392" y1="8.76206" x2="14.6697" y2="7.42263" gradientUnits="userSpaceOnUse">
<stop stop-color="#00A3E0"/>
<stop offset="0.854647" stop-color="#00D4FF"/>
</linearGradient>
</defs>
</svg>
