<svg width="11" height="11" viewBox="0 0 11 11" fill="none" xmlns="http://www.w3.org/2000/svg">
<g clip-path="url(#clip0_4754_4678)">
<path d="M10.2392 4.42176C10.098 4.32695 9.97057 4.21321 9.86035 4.08374C9.86858 3.90353 9.90484 3.7257 9.96783 3.55666C10.0861 3.15562 10.2337 2.65672 9.9495 2.26645C9.66304 1.87297 9.14031 1.85991 8.72025 1.84914C8.5435 1.85622 8.36667 1.83722 8.19546 1.79276C8.1014 1.64512 8.02959 1.48443 7.98233 1.31587C7.84208 0.916659 7.66746 0.419826 7.19996 0.267888C6.74621 0.120305 6.33898 0.400576 5.97988 0.64693C5.83554 0.762171 5.67348 0.853262 5.5 0.916659C5.32642 0.853328 5.16428 0.762233 5.0199 0.64693C4.66125 0.400346 4.25379 0.120992 3.80027 0.268117C3.33277 0.420055 3.15815 0.916659 3.0179 1.31587C2.97068 1.48359 2.8996 1.64366 2.80683 1.79116C2.63507 1.83699 2.45736 1.85653 2.27975 1.84914C1.85969 1.85991 1.33696 1.8732 1.05073 2.26668C0.766563 2.65718 0.913917 3.15585 1.0324 3.55689C1.09464 3.72508 1.13118 3.90168 1.14079 4.08076C1.03092 4.21208 0.902819 4.32699 0.760375 4.42199C0.421667 4.68026 0 5.00201 0 5.49999C0 5.99797 0.421667 6.31972 0.760833 6.57822C0.901972 6.67304 1.02943 6.78677 1.13965 6.91624C1.13142 7.09645 1.09516 7.27428 1.03217 7.44333C0.913917 7.84437 0.766333 8.34326 1.0505 8.73353C1.33696 9.12678 1.85969 9.14008 2.27975 9.15085C2.4565 9.14377 2.63333 9.16276 2.80454 9.20722C2.8986 9.35487 2.97041 9.51555 3.01767 9.68412C3.15815 10.0833 3.33254 10.5802 3.80027 10.7321C3.8831 10.7594 3.96974 10.7733 4.05694 10.7733C4.40894 10.7733 4.73023 10.5522 5.02035 10.3531C5.16462 10.2378 5.3266 10.1467 5.5 10.0833C5.6735 10.1467 5.83556 10.2378 5.97988 10.3531C6.33898 10.5996 6.74621 10.8788 7.19996 10.7321C7.66746 10.5802 7.84208 10.0836 7.98233 9.68435C8.02948 9.51663 8.10048 9.35657 8.19317 9.20905C8.36493 9.16323 8.54264 9.14368 8.72025 9.15108C9.14031 9.1403 9.66327 9.12701 9.9495 8.73353C10.2337 8.34303 10.0863 7.84437 9.96783 7.44333C9.90559 7.27514 9.86905 7.09853 9.85944 6.91945C9.96923 6.78815 10.0973 6.67324 10.2396 6.57822C10.5783 6.31972 11 5.99797 11 5.49999C11 5.00201 10.5783 4.68026 10.2392 4.42176ZM7.54279 4.67843L5.25112 6.9701C5.16517 7.05602 5.04862 7.10429 4.92708 7.10429C4.80555 7.10429 4.68899 7.05602 4.60304 6.9701L3.45721 5.82426C3.41462 5.78171 3.38084 5.73118 3.35778 5.67557C3.33472 5.61996 3.32285 5.56036 3.32282 5.50015C3.3228 5.43995 3.33464 5.38034 3.35766 5.32471C3.38068 5.26908 3.41443 5.21853 3.45698 5.17595C3.49953 5.13337 3.55006 5.09958 3.60567 5.07652C3.66128 5.05347 3.72089 5.04159 3.78109 5.04157C3.84129 5.04154 3.90091 5.05338 3.95653 5.0764C4.01216 5.09942 4.06271 5.13317 4.10529 5.17572L4.92708 5.99774L6.89471 4.03012C6.93699 3.98634 6.98756 3.95142 7.04348 3.9274C7.0994 3.90338 7.15954 3.89074 7.2204 3.89021C7.28126 3.88968 7.34161 3.90128 7.39794 3.92432C7.45426 3.94737 7.50544 3.9814 7.54847 4.02444C7.59151 4.06747 7.62554 4.11864 7.64859 4.17497C7.67163 4.2313 7.68323 4.29165 7.6827 4.35251C7.68217 4.41337 7.66953 4.47351 7.6455 4.52943C7.62148 4.58535 7.58657 4.63592 7.54279 4.6782V4.67843Z" fill="url(#paint0_linear_4754_4678)"/>
</g>
<defs>
<linearGradient id="paint0_linear_4754_4678" x1="-0.020498" y1="1.28157" x2="10.4705" y2="0.729363" gradientUnits="userSpaceOnUse">
<stop stop-color="#00A3E0"/>
<stop offset="0.854647" stop-color="#00D4FF"/>
</linearGradient>
<clipPath id="clip0_4754_4678">
<rect width="11" height="11" fill="white"/>
</clipPath>
</defs>
</svg>
