<svg width="30" height="30" viewBox="0 0 30 30" fill="none" xmlns="http://www.w3.org/2000/svg">
<g clip-path="url(#clip0_4754_4430)">
<path d="M27.239 12.1063C26.8687 11.8576 26.5343 11.5592 26.2451 11.2195C26.2667 10.7467 26.3618 10.2802 26.5271 9.83667C26.8373 8.78452 27.2245 7.47564 26.479 6.45174C25.7275 5.41943 24.3561 5.38516 23.254 5.3569C22.7903 5.37547 22.3264 5.32564 21.8772 5.209C21.6304 4.82165 21.442 4.40007 21.318 3.95784C20.9501 2.91049 20.4919 1.60703 19.2654 1.20841C18.075 0.821219 17.0066 1.55652 16.0645 2.20285C15.6858 2.50519 15.2606 2.74417 14.8055 2.91049C14.3501 2.74434 13.9247 2.50535 13.5459 2.20285C12.605 1.55592 11.536 0.823022 10.3462 1.20901C9.11967 1.60763 8.66153 2.91049 8.29358 3.95784C8.1697 4.39787 7.98321 4.81782 7.73985 5.20479C7.28923 5.32502 6.823 5.37631 6.35702 5.3569C5.25496 5.38516 3.88355 5.42003 3.13262 6.45234C2.38709 7.47684 2.77368 8.78512 3.08452 9.83727C3.24781 10.2785 3.34368 10.7419 3.3689 11.2117C3.08066 11.5562 2.74457 11.8577 2.37086 12.1069C1.48224 12.7845 0.375977 13.6286 0.375977 14.9351C0.375977 16.2416 1.48224 17.0857 2.37206 17.7639C2.74235 18.0126 3.07674 18.311 3.3659 18.6507C3.34432 19.1235 3.24918 19.59 3.08392 20.0335C2.77368 21.0857 2.38649 22.3946 3.13202 23.4185C3.88355 24.4502 5.25496 24.485 6.35702 24.5133C6.82073 24.4947 7.28465 24.5446 7.73383 24.6612C7.98061 25.0486 8.16901 25.4701 8.29298 25.9124C8.66153 26.9597 9.11907 28.2632 10.3462 28.6618C10.5635 28.7333 10.7908 28.7698 11.0196 28.77C11.943 28.77 12.786 28.1898 13.5471 27.6674C13.9256 27.3651 14.3506 27.1261 14.8055 26.9597C15.2607 27.1259 15.6859 27.3649 16.0645 27.6674C17.0066 28.3143 18.075 29.0466 19.2654 28.6618C20.4919 28.2632 20.9501 26.9603 21.318 25.913C21.4417 25.473 21.628 25.053 21.8712 24.666C22.3218 24.5458 22.788 24.4945 23.254 24.5139C24.3561 24.4856 25.7281 24.4508 26.479 23.4185C27.2245 22.394 26.8379 21.0857 26.5271 20.0335C26.3638 19.5923 26.2679 19.1289 26.2427 18.6591C26.5308 18.3146 26.8667 18.0132 27.2402 17.7639C28.1288 17.0857 29.235 16.2416 29.235 14.9351C29.235 13.6286 28.1288 12.7845 27.239 12.1063ZM20.1649 12.7797L14.1526 18.792C13.9271 19.0174 13.6213 19.1441 13.3024 19.1441C12.9836 19.1441 12.6778 19.0174 12.4523 18.792L9.44614 15.7858C9.33442 15.6742 9.24578 15.5416 9.18529 15.3958C9.12479 15.2499 9.09363 15.0935 9.09357 14.9355C9.09352 14.7776 9.12457 14.6212 9.18496 14.4752C9.24535 14.3293 9.3339 14.1967 9.44554 14.085C9.55718 13.9732 9.68973 13.8846 9.83563 13.8241C9.98153 13.7636 10.1379 13.7325 10.2959 13.7324C10.4538 13.7323 10.6102 13.7634 10.7561 13.8238C10.9021 13.8842 11.0347 13.9727 11.1464 14.0844L13.3024 16.241L18.4646 11.0788C18.5755 10.964 18.7082 10.8724 18.8549 10.8093C19.0016 10.7463 19.1594 10.7131 19.3191 10.7118C19.4787 10.7104 19.6371 10.7408 19.7848 10.8013C19.9326 10.8617 20.0669 10.951 20.1798 11.0639C20.2927 11.1768 20.382 11.3111 20.4424 11.4588C20.5029 11.6066 20.5333 11.765 20.5319 11.9246C20.5305 12.0843 20.4974 12.2421 20.4343 12.3888C20.3713 12.5355 20.2797 12.6682 20.1649 12.7791V12.7797Z" fill="url(#paint0_linear_4754_4430)"/>
</g>
<defs>
<linearGradient id="paint0_linear_4754_4430" x1="0.322199" y1="3.86786" x2="27.8459" y2="2.41911" gradientUnits="userSpaceOnUse">
<stop offset="0.145353" stop-color="#00D4FF"/>
<stop offset="1" stop-color="#00A3E0"/>
</linearGradient>
<clipPath id="clip0_4754_4430">
<rect width="28.8591" height="28.8591" fill="white" transform="translate(0.375977 0.505585)"/>
</clipPath>
</defs>
</svg>
