<svg width="56" height="44" viewBox="0 0 56 44" fill="none" xmlns="http://www.w3.org/2000/svg">
<rect width="56" height="44" rx="8" fill="url(#paint0_linear_4754_5429)" fill-opacity="0.2"/>
<path fill-rule="evenodd" clip-rule="evenodd" d="M21 15C20.2044 15 19.4413 15.3161 18.8787 15.8787C18.3161 16.4413 18 17.2044 18 18V26C18 26.7956 18.3161 27.5587 18.8787 28.1213C19.4413 28.6839 20.2044 29 21 29H31C31.7956 29 32.5587 28.6839 33.1213 28.1213C33.6839 27.5587 34 26.7956 34 26V24.414L36.293 26.707C36.4329 26.8468 36.611 26.942 36.805 26.9806C36.9989 27.0192 37.2 26.9993 37.3827 26.9237C37.5654 26.848 37.7215 26.7199 37.8314 26.5555C37.9413 26.391 38 26.1978 38 26V18C38 17.8022 37.9413 17.609 37.8314 17.4445C37.7215 17.2801 37.5654 17.152 37.3827 17.0763C37.2 17.0007 36.9989 16.9808 36.805 17.0194C36.611 17.058 36.4329 17.1532 36.293 17.293L34 19.586V18C34 17.2044 33.6839 16.4413 33.1213 15.8787C32.5587 15.3161 31.7956 15 31 15H21Z" fill="url(#paint1_linear_4754_5429)"/>
<defs>
<linearGradient id="paint0_linear_4754_5429" x1="-0.979019" y1="-2.50001" x2="63.659" y2="5.96553" gradientUnits="userSpaceOnUse">
<stop stop-color="#FFC5C5"/>
<stop offset="1" stop-color="#FF9999"/>
</linearGradient>
<linearGradient id="paint1_linear_4754_5429" x1="28" y1="15" x2="28" y2="29" gradientUnits="userSpaceOnUse">
<stop stop-color="#FFC5C5"/>
<stop offset="1" stop-color="#FF9999"/>
</linearGradient>
</defs>
</svg>
